# xmcd
#
# Track frame offsets:
# 180
# 20387
# 39655
# 52265
# 69758
# 87786
# 100231
# 116316
# 133926
# 149503
#
# Disc length: 2213 seconds
#
# Revision: 1
# Processed by: cddbd v1.4PL0 Copyright (c) Steve Scherf et al.
# Submitted via: CedeCatalogueitor 2.5 http://usuarios.lycos.es/kakasboy
#
DISCID=8808a30a
DTITLE=Aida Cuevas - Todo
DYEAR=1995
DGENRE=Ranchero
TTITLE0=Quiza Mañana
TTITLE1=Guadalajara
TTITLE2=El Jinete
TTITLE3=Jamas Te Prometi Un Jardin De Rosas
TTITLE4=Paloma Negra
TTITLE5=Serenata Husteca
TTITLE6=La Cara La Doy Yo
TTITLE7=La Pajarera
TTITLE8=Rogaciano El Huapangero
TTITLE9=La Paloma
EXTD=
EXTT0=
EXTT1=
EXTT2=
EXTT3=
EXTT4=
EXTT5=
EXTT6=
EXTT7=
EXTT8=
EXTT9=
PLAYORDER=
